<svg width="50" height="50" viewBox="0 0 50 50" fill="none" xmlns="http://www.w3.org/2000/svg">
<rect x="1" y="1" width="48" height="48" rx="9" stroke="#E1DAC6" stroke-opacity="0.5" stroke-width="2"/>
<path fill-rule="evenodd" clip-rule="evenodd" d="M21.6667 35C21.6667 35.442 21.4911 35.8659 21.1785 36.1785C20.8659 36.4911 20.442 36.6667 20 36.6667H18.3333C17.8913 36.6667 17.4674 36.4911 17.1548 36.1785C16.8423 35.8659 16.6667 35.442 16.6667 35V15C16.6667 14.558 16.8423 14.134 17.1548 13.8215C17.4674 13.5089 17.8913 13.3333 18.3333 13.3333H20C20.442 13.3333 20.8659 13.5089 21.1785 13.8215C21.4911 14.134 21.6667 14.558 21.6667 15V35ZM33.3333 35C33.3333 35.442 33.1577 35.8659 32.8452 36.1785C32.5326 36.4911 32.1087 36.6667 31.6667 36.6667H30C29.558 36.6667 29.134 36.4911 28.8215 36.1785C28.5089 35.8659 28.3333 35.442 28.3333 35V15C28.3333 14.558 28.5089 14.134 28.8215 13.8215C29.134 13.5089 29.558 13.3333 30 13.3333H31.6667C32.1087 13.3333 32.5326 13.5089 32.8452 13.8215C33.1577 14.134 33.3333 14.558 33.3333 15V35Z" fill="#E1DAC6"/>
</svg>
