<svg width="50" height="50" viewBox="0 0 50 50" fill="none" xmlns="http://www.w3.org/2000/svg">
<rect x="1" y="1" width="48" height="48" rx="9" stroke="#E1DAC6" stroke-opacity="0.5" stroke-width="2"/>
<path d="M29.6667 35.5C33.7815 33.6952 36.6655 29.7728 36.6655 25C36.6655 20.2272 33.7815 16.3048 29.6667 14.5V16.8333C32.4515 18.4503 34.3322 21.5548 34.3322 25C34.3322 28.4452 32.4515 31.5497 29.6667 33.1667V35.5Z" fill="#E1DAC6"/>
<path d="M29.6667 19.1667V30.8333C31.0958 29.55 32 27.0662 32 25C32 22.9338 31.0958 20.45 29.6667 19.1667ZM15.6667 30.8333H18.8132L27.3333 36.5127V13.4873L18.8132 19.1667H15.6667C14.3798 19.1667 13.3333 20.2132 13.3333 21.5V28.5C13.3333 29.7868 14.3798 30.8333 15.6667 30.8333Z" fill="#E1DAC6"/>
</svg>
